HIERARCHY
ROOT Hips
{
	OFFSET 0 87.647 0
	CHANNELS 6 Xposition Yposition Zposition Yrotation Xrotation Zrotation 
	JOINT RightUpLeg
	{
		OFFSET -10.875 -1.587 0
		CHANNELS 3 Yrotation Xrotation Zrotation 
		JOINT RightLeg
		{
			OFFSET 0 -40.45 0
			CHANNELS 3 Yrotation Xrotation Zrotation 
			JOINT RightFoot
			{
				OFFSET 0 -38.38 0
				CHANNELS 3 Yrotation Xrotation Zrotation 
				End Site
				{
					OFFSET 0 -7.23 16.45
				}
			}
		}
	}
	JOINT LeftUpLeg
	{
		OFFSET 10.875 -1.587 0
		CHANNELS 3 Yrotation Xrotation Zrotation 
		JOINT LeftLeg
		{
			OFFSET 0 -40.45 0
			CHANNELS 3 Yrotation Xrotation Zrotation 
			JOINT LeftFoot
			{
				OFFSET 0 -38.38 0
				CHANNELS 3 Yrotation Xrotation Zrotation 
				End Site
				{
					OFFSET 0 -7.23 16.45
				}
			}
		}
	}
	JOINT Spine
	{
		OFFSET 0 14.284 0
		CHANNELS 3 Yrotation Xrotation Zrotation 
		JOINT Spine1
		{
			OFFSET 0 9.703 0
			CHANNELS 3 Yrotation Xrotation Zrotation 
			JOINT Spine2
			{
				OFFSET 0 10.103 0
				CHANNELS 3 Yrotation Xrotation Zrotation 
				JOINT Spine3
				{
					OFFSET 0 9.703 0
					CHANNELS 3 Yrotation Xrotation Zrotation 
					JOINT Neck
					{
						OFFSET 0 10.371 0
						CHANNELS 3 Yrotation Xrotation Zrotation 
						JOINT Head
						{
							OFFSET 0 8.82 0
							CHANNELS 3 Yrotation Xrotation Zrotation 
							End Site
							{
								OFFSET 0 16.6 0
							}
						}
					}
					JOINT RightShoulder
					{
						OFFSET -3.2 6.914 0
						CHANNELS 3 Yrotation Xrotation Zrotation 
						JOINT RightArm
						{
							OFFSET -12.8 0 0
							CHANNELS 3 Yrotation Xrotation Zrotation 
							JOINT RightForeArm
							{
								OFFSET -21.5 0 0
								CHANNELS 3 Yrotation Xrotation Zrotation 
								JOINT RightHand
								{
									OFFSET -23.5 0 0
									CHANNELS 3 Yrotation Xrotation Zrotation 
									JOINT RightHandThumb1
									{
										OFFSET -2.418 0.185 3.031
										CHANNELS 3 Yrotation Xrotation Zrotation 
										JOINT RightHandThumb2
										{
											OFFSET -3.578 0 0
											CHANNELS 3 Yrotation Xrotation Zrotation 
											JOINT RightHandThumb3
											{
												OFFSET -2.485 0 0
												CHANNELS 3 Yrotation Xrotation Zrotation 
												End Site
												{
													OFFSET -2.131 0 0
												}
											}
										}
									}
									JOINT RightInHandIndex
									{
										OFFSET -3.132 0.494 1.922
										CHANNELS 3 Yrotation Xrotation Zrotation 
										JOINT RightHandIndex1
										{
											OFFSET -5.068 -0.089 0.971
											CHANNELS 3 Yrotation Xrotation Zrotation 
											JOINT RightHandIndex2
											{
												OFFSET -3.516 0 0
												CHANNELS 3 Yrotation Xrotation Zrotation 
												JOINT RightHandIndex3
												{
													OFFSET -1.993 0 0
													CHANNELS 3 Yrotation Xrotation Zrotation 
													End Site
													{
														OFFSET -1.754 0 0
													}
												}
											}
										}
									}
									JOINT RightInHandMiddle
									{
										OFFSET -3.285 0.502 0.735
										CHANNELS 3 Yrotation Xrotation Zrotation 
										JOINT RightHandMiddle1
										{
											OFFSET -5.026 -0.082 0.305
											CHANNELS 3 Yrotation Xrotation Zrotation 
											JOINT RightHandMiddle2
											{
												OFFSET -3.837 0 0
												CHANNELS 3 Yrotation Xrotation Zrotation 
												JOINT RightHandMiddle3
												{
													OFFSET -2.405 0 0
													CHANNELS 3 Yrotation Xrotation Zrotation 
													End Site
													{
														OFFSET -1.918 0 0
													}
												}
											}
										}
									}
									JOINT RightInHandRing
									{
										OFFSET -3.269 0.523 -0.125
										CHANNELS 3 Yrotation Xrotation Zrotation 
										JOINT RightHandRing1
										{
											OFFSET -4.502 -0.021 -0.465
											CHANNELS 3 Yrotation Xrotation Zrotation 
											JOINT RightHandRing2
											{
												OFFSET -3.344 0 0
												CHANNELS 3 Yrotation Xrotation Zrotation 
												JOINT RightHandRing3
												{
													OFFSET -2.32 0 0
													CHANNELS 3 Yrotation Xrotation Zrotation 
													End Site
													{
														OFFSET -1.804 0 0
													}
												}
											}
										}
									}
									JOINT RightInHandPinky
									{
										OFFSET -3.071 0.456 -1.167
										CHANNELS 3 Yrotation Xrotation Zrotation 
										JOINT RightHandPinky1
										{
											OFFSET -4.023 -0.021 -1.059
											CHANNELS 3 Yrotation Xrotation Zrotation 
											JOINT RightHandPinky2
											{
												OFFSET -2.678 0 0
												CHANNELS 3 Yrotation Xrotation Zrotation 
												JOINT RightHandPinky3
												{
													OFFSET -1.692 0 0
													CHANNELS 3 Yrotation Xrotation Zrotation 
													End Site
													{
														OFFSET -1.598 0 0
													}
												}
											}
										}
									}
								}
							}
						}
					}
					JOINT LeftShoulder
					{
						OFFSET 3.2 6.914 0
						CHANNELS 3 Yrotation Xrotation Zrotation 
						JOINT LeftArm
						{
							OFFSET 12.8 0 0
							CHANNELS 3 Yrotation Xrotation Zrotation 
							JOINT LeftForeArm
							{
								OFFSET 21.5 0 0
								CHANNELS 3 Yrotation Xrotation Zrotation 
								JOINT LeftHand
								{
									OFFSET 23.5 0 0
									CHANNELS 3 Yrotation Xrotation Zrotation 
									JOINT LeftHandThumb1
									{
										OFFSET 2.418 0.185 3.031
										CHANNELS 3 Yrotation Xrotation Zrotation 
										JOINT LeftHandThumb2
										{
											OFFSET 3.578 0 0
											CHANNELS 3 Yrotation Xrotation Zrotation 
											JOINT LeftHandThumb3
											{
												OFFSET 2.485 0 0
												CHANNELS 3 Yrotation Xrotation Zrotation 
												End Site
												{
													OFFSET 2.131 0 0
												}
											}
										}
									}
									JOINT LeftInHandIndex
									{
										OFFSET 3.132 0.494 1.922
										CHANNELS 3 Yrotation Xrotation Zrotation 
										JOINT LeftHandIndex1
										{
											OFFSET 5.068 -0.089 0.971
											CHANNELS 3 Yrotation Xrotation Zrotation 
											JOINT LeftHandIndex2
											{
												OFFSET 3.516 0 0
												CHANNELS 3 Yrotation Xrotation Zrotation 
												JOINT LeftHandIndex3
												{
													OFFSET 1.993 0 0
													CHANNELS 3 Yrotation Xrotation Zrotation 
													End Site
													{
														OFFSET 1.754 0 0
													}
												}
											}
										}
									}
									JOINT LeftInHandMiddle
									{
										OFFSET 3.285 0.502 0.735
										CHANNELS 3 Yrotation Xrotation Zrotation 
										JOINT LeftHandMiddle1
										{
											OFFSET 5.026 -0.082 0.305
											CHANNELS 3 Yrotation Xrotation Zrotation 
											JOINT LeftHandMiddle2
											{
												OFFSET 3.837 0 0
												CHANNELS 3 Yrotation Xrotation Zrotation 
												JOINT LeftHandMiddle3
												{
													OFFSET 2.405 0 0
													CHANNELS 3 Yrotation Xrotation Zrotation 
													End Site
													{
														OFFSET 1.918 0 0
													}
												}
											}
										}
									}
									JOINT LeftInHandRing
									{
										OFFSET 3.269 0.523 -0.125
										CHANNELS 3 Yrotation Xrotation Zrotation 
										JOINT LeftHandRing1
										{
											OFFSET 4.502 -0.021 -0.465
											CHANNELS 3 Yrotation Xrotation Zrotation 
											JOINT LeftHandRing2
											{
												OFFSET 3.344 0 0
												CHANNELS 3 Yrotation Xrotation Zrotation 
												JOINT LeftHandRing3
												{
													OFFSET 2.32 0 0
													CHANNELS 3 Yrotation Xrotation Zrotation 
													End Site
													{
														OFFSET 1.804 0 0
													}
												}
											}
										}
									}
									JOINT LeftInHandPinky
									{
										OFFSET 3.071 0.456 -1.167
										CHANNELS 3 Yrotation Xrotation Zrotation 
										JOINT LeftHandPinky1
										{
											OFFSET 4.023 -0.021 -1.059
											CHANNELS 3 Yrotation Xrotation Zrotation 
											JOINT LeftHandPinky2
											{
												OFFSET 2.678 0 0
												CHANNELS 3 Yrotation Xrotation Zrotation 
												JOINT LeftHandPinky3
												{
													OFFSET 1.692 0 0
													CHANNELS 3 Yrotation Xrotation Zrotation 
													End Site
													{
														OFFSET 1.598 0 0
													}
												}
											}
										}
									}
								}
							}
						}
					}
				}
			}
		}
	}
}
MOTION
Frames: 4
Frame Time: 0.008
152.067 83.7265 232.33 31.235 -6.31304 0.194272 1.37865 6.10645 4.4477 5.82541e-006 31.3594 3.05061e-007 1.01261 -30.2401 -6.31384 8.43484 -31.067 -2.66362 1.98641e-006 21.8769 2.12305e-006 -2.79171 -12.9326 -6.46918 3.08069 4.88786 1.32653 0.774723 1.23212 0.306965 1.30735 2.04791 0.520009 0.108101 0.221027 -0.166866 0.108023 0.221612 -0.166919 1.73756 4.11138 -2.95134 -4.50227 -1.20146 6.07516 36.5851 -9.73605 64.51 14.7553 32.3912 -2.74752 -1.70428 -14.4022 -15.8272 21.86 -0 30 -10 -0 0 -10 -0 0 0 -0 0 2.55 -0 20 0 -0 24 0 -0 20 0 -0 0 0 -0 20 0 -0 24 0 -0 20 0 -0 0 -3 -0 20 0 -0 24 0 -0 20 0 -0 0 -8.83 -0 20 0 -0 24 0 -0 20 2.94109 2.54801 -3.90593 -21.8573 -10.5158 -80.1073 1.49807 15.5977 6.14247 -13.5772 -7.26197 16.1657 -21.86 -0 -30 10 -0 0 10 -0 0 0 -0 0 -2.55 -0 -20 0 -0 -24 0 -0 -20 0 -0 0 0 -0 -20 0 -0 -24 0 -0 -20 0 -0 0 3 -0 -20 0 -0 -24 0 -0 -20 0 -0 0 8.83 -0 -20 0 -0 -24 0 -0 -20 
152.592 83.399 233.219 30.9872 -6.32994 0.176008 1.59269 6.62619 4.54199 1.24882e-006 31.9114 8.01039e-007 0.90917 -30.954 -6.21117 7.86805 -31.5975 -2.58222 -3.37559e-006 22.1595 -1.96601e-006 -1.77035 -14.1133 -6.71166 3.15512 4.87666 1.37905 0.793554 1.22929 0.31955 1.33931 2.0426 0.54113 0.114247 0.222685 -0.17009 0.114165 0.223307 -0.170146 1.84243 4.15107 -3.00557 -4.53285 -1.20709 6.22052 36.687 -9.8249 64.1308 14.8767 32.2821 -2.63336 -1.68502 -14.3513 -16.0755 21.86 -0 30 -10 -0 0 -10 -0 0 0 -0 0 2.55 -0 20 0 -0 24 0 -0 20 0 -0 0 0 -0 20 0 -0 24 0 -0 20 0 -0 0 -3 -0 20 0 -0 24 0 -0 20 0 -0 0 -8.83 -0 20 0 -0 24 0 -0 20 3.05361 2.59088 -3.96201 -22.416 -10.5268 -80.0125 2.38976 15.9469 6.05445 -13.4449 -7.19465 15.9675 -21.86 -0 -30 10 -0 0 10 -0 0 0 -0 0 -2.55 -0 -20 0 -0 -24 0 -0 -20 0 -0 0 0 -0 -20 0 -0 -24 0 -0 -20 0 -0 0 3 -0 -20 0 -0 -24 0 -0 -20 0 -0 0 8.83 -0 -20 0 -0 -24 0 -0 -20 
153.137 83.0557 234.048 30.4221 -6.2667 0.322612 2.18071 7.13268 4.49145 3.13991e-006 32.2312 1.35156e-006 0.927164 -31.8388 -6.26502 7.88302 -33.5173 -2.83278 -4.46524e-008 25.0417 -4.47203e-007 -1.09081 -15.1454 -6.49008 3.42381 4.82077 1.34174 0.860333 1.216 0.308416 1.44931 2.02075 0.523192 0.117467 0.224513 -0.185298 0.117327 0.225188 -0.185365 1.87744 4.19776 -3.27852 -4.58057 -1.21704 6.36818 36.7503 -9.89947 63.82 14.9066 32.1614 -2.55945 -1.66773 -14.3247 -16.3226 21.86 -0 30 -10 -0 0 -10 -0 0 0 -0 0 2.55 -0 20 0 -0 24 0 -0 20 0 -0 0 0 -0 20 0 -0 24 0 -0 20 0 -0 0 -3 -0 20 0 -0 24 0 -0 20 0 -0 0 -8.83 -0 20 0 -0 24 0 -0 20 3.15194 2.63772 -3.9984 -23.001 -10.5374 -79.9253 3.42778 16.4718 5.94443 -14.3049 -8.251 16.6053 -21.86 -0 -30 10 -0 0 10 -0 0 0 -0 0 -2.55 -0 -20 0 -0 -24 0 -0 -20 0 -0 0 0 -0 -20 0 -0 -24 0 -0 -20 0 -0 0 3 -0 -20 0 -0 -24 0 -0 -20 0 -0 0 8.83 -0 -20 0 -0 -24 0 -0 -20 
153.701 82.7168 234.863 30.3557 -6.18291 0.426265 2.33483 7.72979 4.43004 -8.61414e-007 32.4519 1.5277e-006 0.880807 -32.7417 -6.27835 7.49034 -34.9125 -3.16601 4.71396e-006 27.2419 2.45997e-006 -0.479559 -16.0418 -6.24096 3.40672 4.75687 1.29733 0.855841 1.19986 0.29781 1.44104 1.99434 0.505374 0.119912 0.224419 -0.199871 0.119709 0.225143 -0.19995 1.90114 4.20857 -3.54092 -4.65438 -1.24016 6.48789 36.7786 -9.98841 63.5936 14.8438 32.0281 -2.52349 -1.64759 -14.3148 -16.5641 21.86 -0 30 -10 -0 0 -10 -0 0 0 -0 0 2.55 -0 20 0 -0 24 0 -0 20 0 -0 0 0 -0 20 0 -0 24 0 -0 20 0 -0 0 -3 -0 20 0 -0 24 0 -0 20 0 -0 0 -8.83 -0 20 0 -0 24 0 -0 20 3.23267 2.6732 -4.02187 -23.615 -10.5468 -79.8399 4.4124 16.961 5.82655 -15.1245 -9.28507 17.2512 -21.86 -0 -30 10 -0 0 10 -0 0 0 -0 0 -2.55 -0 -20 0 -0 -24 0 -0 -20 0 -0 0 0 -0 -20 0 -0 -24 0 -0 -20 0 -0 0 3 -0 -20 0 -0 -24 0 -0 -20 0 -0 0 8.83 -0 -20 0 -0 -24 0 -0 -20 
